<svg xmlns="http://www.w3.org/2000/svg" xmlns:xlink="http://www.w3.org/1999/xlink" xml:space="preserve" version="1.1" style="shape-rendering:geometricPrecision;text-rendering:geometricPrecision;image-rendering:optimizeQuality;" viewBox="0 0 290 281.25" x="0px" y="0px" fill-rule="evenodd" clip-rule="evenodd"><defs><style type="text/css">
   
    .fil0 {fill:black}
   
  </style></defs><g><path class="fil0" d="M140 213c-32,20 -60,17 -78,-17 -16,-26 -43,-7 -62,-33 11,-15 28,-21 46,-24 -7,-8 -9,-13 -14,-23 -21,-8 -3,-20 15,-18 -10,-4 -11,-12 -11,-22 2,-17 18,-24 29,-34 7,-8 8,-15 19,-22 8,-5 33,-10 44,-11 11,-1 22,0 24,9 11,-35 90,-12 102,15 12,24 8,45 -21,68 20,-12 46,22 57,36 -17,11 -38,10 -55,25 -4,4 -27,30 -36,31 -13,21 -48,23 -59,20zm-69 -92c18,3 29,13 31,24 -25,-24 -37,-12 -59,-25 17,35 54,87 102,86 15,0 53,-6 51,-37 -30,-6 -50,-8 -76,-31 -40,-43 -109,-35 -78,-24 5,2 14,5 29,7zm87 -91c17,2 35,-8 44,-1 10,6 14,46 -2,66 24,-6 28,-28 27,-35 11,16 -13,41 -26,44 3,8 5,29 3,41 9,-20 13,-36 26,-52 12,-14 29,-25 15,-54 -10,-23 -72,-43 -84,-21 -2,3 -3,4 -3,12zm-18 111c12,10 34,16 52,19 4,-17 7,-30 0,-52 -14,15 -33,24 -52,33zm48 -93c13,33 -16,47 -38,67 -7,6 -15,15 -18,20 3,-1 46,-20 59,-36 8,-11 18,-51 8,-59 -8,-7 -16,-1 -11,8zm-108 55c-3,-8 -13,-31 -6,-44 7,-2 16,-3 24,-1 4,-9 6,-15 14,-21 9,-7 19,-4 28,-8 8,-4 12,-15 -11,-13 -16,2 -36,7 -41,11 -10,6 -10,12 -18,21 -10,10 -24,11 -26,27 0,7 2,14 8,18 7,4 20,9 28,10zm124 58c2,9 0,19 -1,22 1,1 9,-8 30,-28 15,-13 34,-15 47,-19 -21,-28 -33,-31 -42,-29 -18,4 -22,41 -34,54zm-192 1c12,18 39,2 57,29 15,23 23,31 61,21 -44,-6 -76,-58 -79,-64 -15,1 -31,2 -39,14zm90 -52c1,-10 -15,-9 -10,-38 23,21 48,20 64,19 -26,14 -52,0 -57,-6 -2,10 11,13 11,30 3,6 8,11 16,16 25,-35 46,-32 55,-55 -30,15 -53,10 -69,-1 -12,-6 -11,-9 -31,-8 -2,18 8,39 21,43zm34 -45c8,8 14,7 23,-2 -7,-7 -9,-4 -17,2 11,-23 24,-11 29,0 28,-21 -40,-34 -35,0zm-31 -3c11,5 14,11 25,10 -7,-17 0,-23 6,-33 -14,0 -16,1 -20,4 -5,3 -6,5 -11,19zm37 -19c4,-3 9,-4 14,-4 9,0 17,2 22,6 -1,-2 -1,-4 -1,-6 0,-3 2,-4 3,-5 -5,1 -11,2 -14,3 -4,0 -8,0 -12,0l-4 0c0,-4 1,-8 1,-12 -1,4 -4,7 -9,9l6 0c-2,3 -4,6 -6,9zm-2 33c-3,1 -8,1 -11,1 16,4 30,2 39,-3 -1,-2 -2,-4 -4,-6 -7,7 -14,11 -24,8zm36 -6c3,-1 6,-2 9,-4 0,-2 0,-4 -1,-7 -1,4 -4,7 -8,11z"/></g><text x="0" y="240" fill="#000000" font-size="5px" font-weight="bold" font-family="'Helvetica Neue', Helvetica, Arial-Unicode, Arial, Sans-serif">Created by Syafa Studio</text><text x="0" y="245" fill="#000000" font-size="5px" font-weight="bold" font-family="'Helvetica Neue', Helvetica, Arial-Unicode, Arial, Sans-serif">from the Noun Project</text></svg>